<?xml version="1.0" encoding="utf-8"?>
<!-- Generator: Adobe Illustrator 16.0.0, SVG Export Plug-In . SVG Version: 6.00 Build 0)  -->
<!DOCTYPE svg PUBLIC "-//W3C//DTD SVG 1.1//EN" "http://www.w3.org/Graphics/SVG/1.1/DTD/svg11.dtd">
<svg version="1.1" id="Layer_1" xmlns="http://www.w3.org/2000/svg" xmlns:xlink="http://www.w3.org/1999/xlink" x="0px" y="0px"
	 width="384px" height="233.931px" viewBox="17.323 22.423 384 233.931" enable-background="new 17.323 22.423 384 233.931"
	 xml:space="preserve">
<g id="Layer_2">
	<path fill="#FFFFFF" d="M401.322,162.256c-14.95,56.073-52.066,49.199-76.595,66.682c-38.548,27.459-87.606,36.576-140.727,22.336
		C109.527,231.312,58.886,157.551,64.1,83.249l39.19-1.309c101.304,143.212,83.939,47.911,134.56-15.777
		c0,0,19.759-3.453,21.048-3.678c6.71-1.173,31.09,120.342,42.237,113.539C338.925,152.936,395,141.719,401.322,162.256z"/>
</g>
<g id="Layer_3">
	<path fill="#FFFFFF" d="M17.883,77.097c0,0,208.919-9.099,363.211-54.674l3.67,7.693C279.453,71.651,97.615,85.357,17.325,85.592
		C17.279,85.841,17.883,77.097,17.883,77.097z"/>
</g>
</svg>
