<?xml version="1.0" encoding="utf-8"?>
<!-- Generator: Adobe Illustrator 16.0.0, SVG Export Plug-In . SVG Version: 6.00 Build 0)  -->
<!DOCTYPE svg PUBLIC "-//W3C//DTD SVG 1.1//EN" "http://www.w3.org/Graphics/SVG/1.1/DTD/svg11.dtd">
<svg version="1.1" id="Layer_1" xmlns="http://www.w3.org/2000/svg" xmlns:xlink="http://www.w3.org/1999/xlink" x="0px" y="0px"
	 width="1365.711px" height="331.699px" viewBox="17.323 0 1365.711 331.699" enable-background="new 17.323 0 1365.711 331.699"
	 xml:space="preserve">
<g id="Layer_1_1_">
	<g>
		<path fill="#FFFFFF" d="M594.648,131.201c0,46.398-28.2,70.999-62.602,70.999c-35.6,0-60.599-27.601-60.599-68.399
			c0-42.799,26.6-70.799,62.599-70.799C570.849,63.002,594.648,91.201,594.648,131.201z M490.05,133.401
			C490.05,162.2,505.65,188,533.049,188c27.602,0,43.199-25.399,43.199-55.999c0-26.8-14-54.799-42.999-54.799
			C504.449,77.202,490.05,103.802,490.05,133.401z"/>
		<path fill="#FFFFFF" d="M616.648,134.801c0-12.399-0.399-22.399-0.802-31.6h15.802l0.8,16.6h0.398
			c7.199-11.8,18.602-18.799,34.399-18.799c23.398,0,40.999,19.799,40.999,49.199c0,34.799-21.199,51.999-43.999,51.999
			c-12.8,0-24-5.601-29.8-15.2h-0.399v52.6h-17.398V134.801z M634.049,160.601c0,2.6,0.399,5,0.8,7.2
			c3.199,12.199,13.802,20.6,26.399,20.6c18.6,0,29.398-15.198,29.398-37.397c0-19.4-10.199-36-28.801-36
			c-12,0-23.197,8.601-26.6,21.8c-0.6,2.2-1.199,4.8-1.199,7.2L634.049,160.601L634.049,160.601z"/>
		<path fill="#FFFFFF" d="M740.245,154.801c0.398,23.801,15.6,33.6,33.2,33.6c12.6,0,20.197-2.198,26.799-5l3,12.602
			c-6.199,2.8-16.8,6-32.199,6c-29.8,0-47.6-19.602-47.6-48.799c0-29.2,17.2-52.199,45.397-52.199c31.602,0,40,27.799,40,45.599
			c0,3.601-0.398,6.4-0.601,8.2L740.245,154.801L740.245,154.801z M791.845,142.201c0.2-11.2-4.601-28.6-24.397-28.6
			c-17.801,0-25.602,16.399-27,28.6H791.845z"/>
		<path fill="#FFFFFF" d="M830.645,129.401c0-10-0.198-18.2-0.8-26.2h15.602l1,16h0.398c4.8-9.2,15.999-18.199,31.999-18.199
			c13.4,0,34.199,7.999,34.199,41.199V200h-17.6v-55.799c0-15.6-5.802-28.6-22.399-28.6c-11.6,0-20.6,8.199-23.6,17.999
			c-0.8,2.2-1.2,5.2-1.2,8.2V200h-17.6V129.401L830.645,129.401z"/>
		<path fill="#FFFFFF" d="M941.243,168.602c8.199,4.199,20.799,8.398,33.799,8.398c14,0,21.4-5.8,21.4-14.6
			c0-8.399-6.4-13.199-22.603-19c-22.397-7.8-36.999-20.199-36.999-39.799c0-23,19.2-40.6,50.999-40.6c15.2,0,26.399,3.2,34.399,6.8
			l-6.8,24.6c-5.399-2.6-15-6.399-28.199-6.399c-13.2,0-19.602,6-19.602,13c0,8.6,7.602,12.399,24.999,18.999
			c23.802,8.8,35.001,21.2,35.001,40.199c0,22.6-17.398,41.8-54.398,41.8c-15.399,0-30.601-4-38.199-8.2L941.243,168.602z"/>
		<path fill="#FFFFFF" d="M1046.442,58.002h30.397V200h-30.397V58.002z"/>
		<path fill="#FFFFFF" d="M1198.039,150.001c0,35.799-25.399,52.199-51.6,52.199c-28.601,0-50.601-18.8-50.601-50.399
			c0-31.599,20.8-51.799,52.199-51.799C1178.04,100.002,1198.039,120.602,1198.039,150.001z M1127.24,151.001
			c0,16.8,7,29.399,20,29.399c11.8,0,19.397-11.801,19.397-29.399c0-14.6-5.6-29.399-19.397-29.399
			C1132.641,121.602,1127.24,136.601,1127.24,151.001z"/>
		<path fill="#FFFFFF" d="M1250.839,74.202v27.999h21.8v22.4h-21.8V160c0,11.8,2.8,17.199,12,17.199c3.8,0,6.8-0.399,9-0.801l0.2,23
			c-4,1.601-11.2,2.601-19.8,2.601c-9.802,0-18-3.399-22.802-8.399c-5.6-5.801-8.398-15.199-8.398-29v-39.999h-12.999v-22.4h12.999
			V81.002L1250.839,74.202z"/>
		<path fill="#FFFFFF" d="M1290.238,58.002h30.397v55.8h0.399c3.2-4.2,7.2-7.4,12-10c4.4-2.4,10.2-3.8,15.8-3.8
			c19.399,0,34.199,13.399,34.199,42.799V200h-30.399v-53.799c0-12.8-4.397-21.6-15.8-21.6c-8,0-13,5.199-15.199,10.6
			c-0.8,2-1,4.6-1,6.8V200h-30.397V58.002z"/>
	</g>
</g>
<g id="Layer_2">
	<path fill="#FFFFFF" d="M401.322,162.256c-14.95,56.073-52.066,49.199-76.596,66.682c-38.547,27.459-87.605,36.576-140.727,22.336
		C109.527,231.312,58.886,157.551,64.1,83.249l39.19-1.309c101.304,143.212,83.939,47.911,134.56-15.777
		c0,0,19.759-3.453,21.048-3.678c6.71-1.173,31.09,120.342,42.237,113.539C338.925,152.936,395,141.719,401.322,162.256z"/>
</g>
<g id="Layer_3">
	<path fill="#FFFFFF" d="M17.883,77.097c0,0,208.919-9.099,363.211-54.674l3.67,7.693C279.453,71.651,97.615,85.357,17.325,85.592
		C17.279,85.841,17.883,77.097,17.883,77.097z"/>
</g>
<g id="Layer_6">
	<g id="Layer_1_2_">
		<g id="ChrissMejia" enable-background="new    ">
			<path fill="#FFFFFF" d="M1359.373,254.809c-3.146,0.592-19.342,12.836-16.248,24.748c4.002,9.258,16.641-5.008,22.451-6.494
				c13.135-3.709,14.511,4.58,14.604,9.129c-1.956,1.886-2.182-8.199-13.506-4.739c-18.867,10.603-22.267,13-27.38,4.022
				c-4.069-11.971,6.302-21.731,17.523-28.49C1362.905,250.7,1364.713,253.143,1359.373,254.809z"/>
			<path fill="#FFFFFF" d="M1329.794,264.665c-1.916,3.735-7.589,16.869-8.036,18.996c-0.529,2.592,2.116,2.062-0.726,3.647
				C1313.582,289.256,1327.426,257.786,1329.794,264.665z"/>
			<path fill="#FFFFFF" d="M1361.551,226.141c-4.218,3.08-17.719,14.521-19.301,16.633c-1.936,2.584,1.625,3.479-2.696,3.656
				C1329.316,244.498,1361.967,217.195,1361.551,226.141z"/>
			<path fill="#FFFFFF" d="M1328.207,225.465c-1.5,5.15-3.174,9.203-4.015,11.549c-0.608,3.286-2.813,3.006-2.562-0.738
				C1322.26,231.451,1325.595,218.773,1328.207,225.465z"/>
			<path fill="#FFFFFF" d="M1321.4,249.704c-3.348,14.331-22.523,63.478-30.67,70.093c-9.637,6.852-6.875-5.953-5.478-7.668
				c0.67,7.366,1.882,7.934,4.749,3.293c15.249-29.395,22.312-52.667,28.111-66.079
				C1319.245,247.996,1321.474,248.029,1321.4,249.704z"/>
			<path fill="#FFFFFF" d="M1275.393,265.771c-3.691,2.677-1.111-3.06-3.646-2.567c-0.613,0.832-2.346,2.812,0.73,5.849
				c0.066,0.04,0.098,2.637,0,2.569c-7.17,18.53,12.803,24.347,23.371,15.312c0.518-0.416,0.025-1.226-1.104-0.716
				c-15.426,6.548-25.096-4.315-18.985-14.595c1.738-0.141,27.753-4.775,27.753-21.916
				C1297.457,243.52,1282.447,255.09,1275.393,265.771z M1281.243,261.75c7.996-8.574,15.096-12.955,19.71-11.318
				c1.102,2.992-5.417,8.668-9.123,12.045c-8.189,5.711-12.42,5.479-12.42,5.479S1275.428,268.775,1281.243,261.75z"/>
			<path fill="#FFFFFF" d="M1281.604,224.145c1.154-1.422,3.546-0.275,2.559,1.82c-4.023,4.992-20.503,18.426-31.4,42.359
				c-12.267,33.865,12.828,7.119,13.142,11.312c-8.986,12.24-22.398,12.45-19.719-1.457c2.38-9.729,9.29-21.703,8.404-22.275
				c-1.971-1.315-5.899,6.395-11.317,9.488c-6.857,3.967-3.918-1.402-7.306,0c-8.021,8.721-24.886,26.938-25.551,27.763
				c-0.941,1.473,0.535,1.868-0.738,3.264c-1.936,1.431-6.408-0.399-4.01-2.897c3.947-5.924,37.079-40.969,39.061-43.09
				c3.241-1.576,5.038,1.989,4.014,2.916c-1.245,1.614-4.969,4.99-3.639,5.852c2.604-0.86,17.153-17.396,19.35-18.26
				C1265.625,239.977,1278.119,227.432,1281.604,224.145z"/>
			<path fill="#FFFFFF" d="M1203.11,257.361c1.248,1.421-9.333,6.44-4.739,10.595c5.842,4.974,8.045,1.249,13.13,6.93
				c1.81,4.757-6.383,4.517-17.884,11.329c-9.898,6.061-18.621,14.026-19.353,13.141c-4.602-3.207,18.901-16.277,30.663-22.282
				c3.473-1.972-1.304-3.2-2.926-3.646c-4.566-1.173-7.014-3.932-8.024-5.847C1192.057,262.626,1201.54,254.867,1203.11,257.361z"/>
			<path fill="#FFFFFF" d="M1179.75,257.361c1.236,1.421-9.332,6.44-4.754,10.595c5.853,4.974,8.046,1.249,13.141,6.93
				c1.801,4.757-6.391,4.517-17.888,11.329c-9.901,6.061-18.615,14.026-19.354,13.141c-4.588-3.207,18.902-16.277,30.681-22.282
				c3.471-1.972-1.306-3.2-2.928-3.646c-4.582-1.173-7.015-3.932-8.037-5.847C1168.695,262.626,1178.181,254.867,1179.75,257.361z"
				/>
			<path fill="#FFFFFF" d="M1169.016,241.062c-0.966,4.16-2.189,7.472-2.78,9.371c-0.271,2.627-2.446,2.582-2.557-0.379
				C1163.812,246.219,1165.825,236.016,1169.016,241.062z"/>
			<path fill="#FFFFFF" d="M1160.752,264.665c-1.911,3.735-7.58,16.869-8.021,18.996c-0.543,2.592,2.111,2.062-0.729,3.647
				C1144.558,289.256,1158.396,257.786,1160.752,264.665z"/>
			<path fill="#FFFFFF" d="M1146.153,260.654c3.553,2.385,3.727,4.76,2.013,5.964c-2.76,1.922-1.064-1.812-2.74-1.224
				c-0.475-0.525-6.362,5.699-10.223,11.312c-4.018,6.23-5.171,12.062-7.67,12.05
				C1117.582,289.473,1143.573,259.902,1146.153,260.654z"/>
			<path fill="#FFFFFF" d="M1122.794,235.822c1.357,0.729-27.761,49.578-26.289,51.111c1.457,1.561,24.695-25.685,31.03-25.545
				c5.168,1.812-9.67,29.307-12.047,28.109c-4.563-1.278,14.298-25.512,8.752-24.104c-7.572,2.987-26.73,26.567-28.103,27.765
				c-1.369,1.167-8.646,5.927-2.989-8.595C1094.339,280.538,1119.323,234.827,1122.794,235.822z"/>
			<path fill="#FFFFFF" d="M1108.184,228.154c1.772,3.521-11.692,12.07-13.865,12.043c-5.611-2.857,2.363-4.01,0-5.836
				c-3.926,0.744-62.565,37.258-58.416,53.31c7.877,15.338,52.581-9.03,51.84-4.372c-23.619,13.65-44.961,20.061-54.335,9.863
				c-8.468-16.688,6.536-27.811,30.23-46.378C1086.898,229.577,1102.189,220.059,1108.184,228.154z"/>
		</g>
	</g>
	<g>
		<path fill="#FFFFFF" d="M949.123,292.336h-3.86v-46.324h3.86v18.336c1.243-2.059,2.948-3.611,5.115-4.664
			c2.165-1.051,4.428-1.576,6.787-1.576c2.528,0,4.729,0.482,6.595,1.447s3.41,2.252,4.633,3.86s2.134,3.485,2.734,5.63
			c0.601,2.146,0.899,4.375,0.899,6.691c0,2.445-0.279,4.74-0.837,6.885s-1.447,4-2.67,5.564s-2.776,2.799-4.665,3.698
			c-1.888,0.9-4.182,1.353-6.884,1.353c-1.073,0-2.167-0.15-3.281-0.45c-1.116-0.302-2.198-0.729-3.249-1.286
			c-1.052-0.559-2.018-1.255-2.896-2.092c-0.88-0.836-1.601-1.812-2.155-2.928h-0.129L949.123,292.336L949.123,292.336z
			 M949.123,275.543c0,2.018,0.246,3.893,0.74,5.63c0.492,1.737,1.211,3.239,2.153,4.504c0.942,1.267,2.123,2.263,3.538,2.992
			c1.416,0.729,3.024,1.095,4.826,1.095c1.629,0,3.13-0.291,4.503-0.869c1.373-0.58,2.574-1.427,3.604-2.541
			c1.029-1.114,1.834-2.479,2.413-4.086s0.866-3.463,0.866-5.564c0.088-2.102-0.087-4.062-0.515-5.889
			c-0.43-1.821-1.116-3.42-2.059-4.793c-0.944-1.373-2.155-2.455-3.638-3.25c-1.479-0.793-3.206-1.188-5.179-1.188
			c-1.76,0-3.336,0.376-4.729,1.126c-1.396,0.751-2.572,1.762-3.538,3.023c-0.966,1.267-1.704,2.744-2.222,4.438
			C949.38,271.866,949.123,273.656,949.123,275.543z"/>
		<path fill="#FFFFFF" d="M983.866,301.344c0.515,0.086,1.04,0.172,1.576,0.258s1.083,0.129,1.641,0.129
			c1.072,0,1.951-0.344,2.639-1.026c0.688-0.688,1.254-1.513,1.704-2.476c0.451-0.965,0.826-1.971,1.126-3.02
			c0.3-1.051,0.646-1.938,1.03-2.666l-12.933-33.535h4.311l10.681,28.631l10.683-28.631h4.182l-12.418,32.878
			c-0.771,2.101-1.512,3.989-2.22,5.662c-0.707,1.673-1.458,3.099-2.251,4.278c-0.795,1.179-1.673,2.08-2.64,2.701
			c-0.966,0.621-2.112,0.934-3.441,0.934c-0.688,0-1.341-0.043-1.962-0.128c-0.622-0.087-1.19-0.192-1.705-0.321L983.866,301.344
			L983.866,301.344z"/>
	</g>
</g>
</svg>
